<svg id="el_KcZGjTzBh" data-name="Communication icons" xmlns="http://www.w3.org/2000/svg" viewBox="0 0 1187 1015"><style>@-webkit-keyframes kf_el_Hdz-m8NAXr_an_WNqCj1gAm{61.67%{opacity: 0;}75%{opacity: 1;}0%{opacity: 0;}100%{opacity: 1;}}@keyframes kf_el_Hdz-m8NAXr_an_WNqCj1gAm{61.67%{opacity: 0;}75%{opacity: 1;}0%{opacity: 0;}100%{opacity: 1;}}@-webkit-keyframes kf_el_0lN1Nk02wL_an_lL5LFH1bf{50%{opacity: 0;}61.67%{opacity: 1;}0%{opacity: 0;}100%{opacity: 1;}}@keyframes kf_el_0lN1Nk02wL_an_lL5LFH1bf{50%{opacity: 0;}61.67%{opacity: 1;}0%{opacity: 0;}100%{opacity: 1;}}@-webkit-keyframes kf_el_xNkWC_9K_E_an_OIaAu1le5{36.67%{opacity: 0;}50%{opacity: 1;}0%{opacity: 0;}100%{opacity: 1;}}@keyframes kf_el_xNkWC_9K_E_an_OIaAu1le5{36.67%{opacity: 0;}50%{opacity: 1;}0%{opacity: 0;}100%{opacity: 1;}}@-webkit-keyframes kf_el_g_hOjBdpfz_an_yRij3Gn9r{25%{opacity: 0;}36.67%{opacity: 1;}0%{opacity: 0;}100%{opacity: 1;}}@keyframes kf_el_g_hOjBdpfz_an_yRij3Gn9r{25%{opacity: 0;}36.67%{opacity: 1;}0%{opacity: 0;}100%{opacity: 1;}}#el_KcZGjTzBh *{-webkit-animation-duration: 2s;animation-duration: 2s;-webkit-animation-iteration-count: infinite;animation-iteration-count: infinite;-webkit-animation-timing-function: cubic-bezier(0, 0, 1, 1);animation-timing-function: cubic-bezier(0, 0, 1, 1);}#el_g_hOjBdpfz{fill: #fff;-webkit-transform: translate(-8.33px, NaNpx);transform: translate(-8.33px, NaNpx);-webkit-animation-fill-mode: backwards;animation-fill-mode: backwards;opacity: 0;-webkit-animation-name: kf_el_g_hOjBdpfz_an_yRij3Gn9r;animation-name: kf_el_g_hOjBdpfz_an_yRij3Gn9r;-webkit-animation-timing-function: cubic-bezier(0.42, 0, 0.58, 1);animation-timing-function: cubic-bezier(0.42, 0, 0.58, 1);}#el_6ZKOS_yWJU{fill: #fff;-webkit-transform: translate(-8.33px, NaNpx);transform: translate(-8.33px, NaNpx);}#el_18m88qo4t1{fill: #fff;-webkit-transform: translate(-8.33px, NaNpx);transform: translate(-8.33px, NaNpx);}#el_xNkWC_9K_E{fill: #fff;-webkit-transform: translate(-8.33px, NaNpx);transform: translate(-8.33px, NaNpx);-webkit-animation-fill-mode: backwards;animation-fill-mode: backwards;opacity: 0;-webkit-animation-name: kf_el_xNkWC_9K_E_an_OIaAu1le5;animation-name: kf_el_xNkWC_9K_E_an_OIaAu1le5;-webkit-animation-timing-function: cubic-bezier(0.42, 0, 0.58, 1);animation-timing-function: cubic-bezier(0.42, 0, 0.58, 1);}#el_0lN1Nk02wL{fill: #fff;-webkit-transform: translate(-8.33px, NaNpx);transform: translate(-8.33px, NaNpx);-webkit-animation-fill-mode: backwards;animation-fill-mode: backwards;opacity: 0;-webkit-animation-name: kf_el_0lN1Nk02wL_an_lL5LFH1bf;animation-name: kf_el_0lN1Nk02wL_an_lL5LFH1bf;-webkit-animation-timing-function: cubic-bezier(0.42, 0, 0.58, 1);animation-timing-function: cubic-bezier(0.42, 0, 0.58, 1);}#el_Hdz-m8NAXr{fill: #fff;-webkit-transform: translate(-8.33px, NaNpx);transform: translate(-8.33px, NaNpx);-webkit-animation-fill-mode: backwards;animation-fill-mode: backwards;opacity: 0;-webkit-animation-name: kf_el_Hdz-m8NAXr_an_WNqCj1gAm;animation-name: kf_el_Hdz-m8NAXr_an_WNqCj1gAm;-webkit-animation-timing-function: cubic-bezier(0.42, 0, 0.58, 1);animation-timing-function: cubic-bezier(0.42, 0, 0.58, 1);}#el_LQM_493-By{fill: #fff;-webkit-transform: translate(-8.33px, NaNpx);transform: translate(-8.33px, NaNpx);}#el_18m88qo4t1_an_tv49wTc4T{-webkit-transform: translate(198.53997802734375px, 874.2649536132812px) translate(-198.53997802734375px, -874.2649536132812px) translate(0px, 1000px);transform: translate(198.53997802734375px, 874.2649536132812px) translate(-198.53997802734375px, -874.2649536132812px) translate(0px, 1000px);}#el_LQM_493-By_an_rWU9kVJ-_{-webkit-transform: translate(629.5499877929688px, 874.2649536132812px) translate(-629.5499877929688px, -874.2649536132812px) translate(0px, 1000px);transform: translate(629.5499877929688px, 874.2649536132812px) translate(-629.5499877929688px, -874.2649536132812px) translate(0px, 1000px);}</style><defs/><title>contact-us</title><path d="M747.28,473.94a33.13,33.13,0,0,1-24.2-10.62,32.45,32.45,0,0,1-8.59-24.81l6.4-82.72C662,320,629.55,265.94,629.55,202.57,629.55,89,754,0,912.77,0S1196,89,1196,202.57,1071.59,405.15,912.77,405.15c-10.34,0-20.88-.39-31.34-1.15a23.12,23.12,0,0,0-14.2,3.27l-103,61.93A32.8,32.8,0,0,1,747.28,473.94Zm11.6-126.07-6.58,85L848,375.34a61.25,61.25,0,0,1,36.14-8.51c9.54.69,19.17,1,28.61,1,137.93,0,246-72.62,246-165.31s-108-165.3-246-165.3-246,72.61-246,165.3c0,53.34,28.4,97,82.13,126.38A19.28,19.28,0,0,1,758.88,347.87Z" id="el_g_hOjBdpfz"/><path d="M599.13,641.12A233.46,233.46,0,0,0,667.38,475.8c0-129.42-105.29-234.71-234.71-234.71S198,346.38,198,475.8a233.46,233.46,0,0,0,68.25,165.32C36.29,664.47,8.33,852.91,8.33,996.92A18.63,18.63,0,0,0,27,1015.55a17.07,17.07,0,0,0,2.06-.21,17.1,17.1,0,0,0,2.06.21H835.31c.53,0,1-.11,1.54-.15s1,.15,1.54.15A18.63,18.63,0,0,0,857,996.92C857,852.91,829.06,664.47,599.13,641.12ZM235.81,475.67c0-108.56,88.31-196.87,196.86-196.87s196.88,88.31,196.88,196.87S541.23,672.53,432.67,672.53,235.81,584.22,235.81,475.67Zm75.93,200.41a233.72,233.72,0,0,0,241.87,0c225.1,1.8,263.3,150.63,266,302.2H45.78C48.44,826.71,86.64,677.88,311.74,676.08Z" id="el_6ZKOS_yWJU"/><path d="M235.81,892.9a18.63,18.63,0,1,0-37.27,0v85.38h37.27Z" id="el_18m88qo4t1"/><path d="M844.57,199.5a31.24,31.24,0,1,1-31.24-31.24A31.24,31.24,0,0,1,844.57,199.5Z" id="el_xNkWC_9K_E"/><path d="M944,199.5a31.24,31.24,0,1,1-31.24-31.24A31.24,31.24,0,0,1,944,199.5Z" id="el_0lN1Nk02wL"/><path d="M1043.43,199.5a31.24,31.24,0,1,1-31.24-31.24A31.24,31.24,0,0,1,1043.43,199.5Z" id="el_Hdz-m8NAXr"/><path d="M666.82,892.9a18.63,18.63,0,1,0-37.27,0v85.38h37.27Z" id="el_LQM_493-By"/></svg>