<svg id="ef17df941mkg1" xmlns="http://www.w3.org/2000/svg" xmlns:xlink="http://www.w3.org/1999/xlink" viewBox="0 0 65 69" shape-rendering="geometricPrecision" text-rendering="geometricPrecision" width="65" height="69"><style><![CDATA[#ef17df941mkg9_to {animation: ef17df941mkg9_to__to 2000ms linear infinite normal forwards}@keyframes ef17df941mkg9_to__to { 0% {transform: translate(2.258774px,11.397613px);animation-timing-function: cubic-bezier(0.420000,0,1,1)} 50% {transform: translate(0px,0px)} 100% {transform: translate(0px,0px)} }#ef17df941mkg9 {animation: ef17df941mkg9_f_o 2000ms linear infinite normal forwards}@keyframes ef17df941mkg9_f_o { 0% {fill-opacity: 0;animation-timing-function: cubic-bezier(0.420000,0,1,1)} 10% {fill-opacity: 1} 40% {fill-opacity: 1} 50% {fill-opacity: 0} 100% {fill-opacity: 0} }#ef17df941mkg11_to {animation: ef17df941mkg11_to__to 2000ms linear infinite normal forwards}@keyframes ef17df941mkg11_to__to { 0% {transform: translate(-0.876651px,17.229721px)} 25% {transform: translate(-0.876651px,17.229721px);animation-timing-function: cubic-bezier(0.420000,0,1,1)} 75% {transform: translate(0px,0px)} 100% {transform: translate(0px,0px)} }#ef17df941mkg11 {animation: ef17df941mkg11_f_o 2000ms linear infinite normal forwards}@keyframes ef17df941mkg11_f_o { 0% {fill-opacity: 0} 25% {fill-opacity: 0;animation-timing-function: cubic-bezier(0.420000,0,1,1)} 35% {fill-opacity: 1;animation-timing-function: cubic-bezier(0.420000,0,0.580000,1)} 65% {fill-opacity: 1;animation-timing-function: cubic-bezier(0.420000,0,0.580000,1)} 75% {fill-opacity: 0} 100% {fill-opacity: 0} }#ef17df941mkg13_to {animation: ef17df941mkg13_to__to 2000ms linear infinite normal forwards}@keyframes ef17df941mkg13_to__to { 0% {transform: translate(0px,0px)} 40% {transform: translate(0px,0px);animation-timing-function: cubic-bezier(0.420000,0,1,1)} 100% {transform: translate(3.469309px,-17.691903px)} }#ef17df941mkg13 {animation: ef17df941mkg13_f_o 2000ms linear infinite normal forwards}@keyframes ef17df941mkg13_f_o { 0% {fill-opacity: 0} 40% {fill-opacity: 0;animation-timing-function: cubic-bezier(0.420000,0,1,1)} 50% {fill-opacity: 1;animation-timing-function: cubic-bezier(0.420000,0,0.580000,1)} 90% {fill-opacity: 1;animation-timing-function: cubic-bezier(0,0,0.580000,1)} 100% {fill-opacity: 0} }]]></style><g id="ef17df941mkg2"><g id="ef17df941mkg3" transform="matrix(1 0 0 1 -224 -966)"><g id="ef17df941mkg4" transform="matrix(1 0 0 1 0 747)"><g id="ef17df941mkg5" transform="matrix(1 0 0 1 220 215)"><g id="ef17df941mkg6" transform="matrix(1 0 0 1 0.60769500000000 0)"><g id="ef17df941mkg7"><g id="ef17df941mkg8" transform="matrix(-0.86602500000000 0.50000000000000 0.50000000000000 0.86602500000000 58.39230000000000 0.60769500000000)"><g id="ef17df941mkg9_to" transform="translate(2.258774,11.397613)"><path id="ef17df941mkg9" d="M12.100000,23.700000C11.700000,23.700000,11.300000,23.400000,11,23C10.700000,22.700000,3.900000,14.800000,1.500000,10.300000C-0.300000,7,1,1.200000,6.900000,1.200000C9.300000,1.200000,11,2.400000,12.100000,3.800000C13.300000,2.200000,15.200000,0.400000,18.100000,0.800000C23.200000,1.400000,24.900000,6.500000,22.900000,10.300000C21,13.900000,13.500000,22.700000,13.200000,23.100000C12.900000,23.400000,12.500000,23.700000,12.100000,23.700000L12.100000,23.700000ZM6.900000,4.200000C3.300000,4.200000,3.600000,7.800000,4.100000,8.900000C5.700000,12.100000,10,17.200000,12,19.600000C14.200000,17,18.900000,11.400000,20.200000,8.800000C20.800000,7.600000,21.200000,4.100000,17.700000,3.700000C14.900000,3.400000,13.500000,7.400000,13.500000,7.400000C13.300000,8.100000,12.700000,8.500000,12,8.400000C11.300000,8.400000,10.700000,8,10.600000,7.300000C10.600000,7.300000,9.800000,4.200000,6.900000,4.200000L6.900000,4.200000Z" transform="translate(0,0)" fill="rgb(255,255,255)" fill-opacity="0" stroke="none" stroke-width="1"/></g></g><g id="ef17df941mkg10" transform="matrix(-0.86602500000000 0.50000000000000 0.50000000000000 0.86602500000000 21.39230000000000 11.60770000000000)"><g id="ef17df941mkg11_to" transform="translate(-0.876651,17.229721)"><path id="ef17df941mkg11" d="M12.100000,23.700000C11.700000,23.700000,11.300000,23.400000,11,23C10.700000,22.700000,3.900000,14.800000,1.500000,10.300000C-0.300000,7,1,1.200000,6.900000,1.200000C9.300000,1.200000,11,2.400000,12.100000,3.800000C13.300000,2.200000,15.200000,0.400000,18.100000,0.800000C23.200000,1.400000,24.900000,6.500000,22.900000,10.300000C21,13.900000,13.500000,22.700000,13.200000,23.100000C12.900000,23.400000,12.500000,23.700000,12.100000,23.700000L12.100000,23.700000ZM6.900000,4.200000C3.300000,4.200000,3.600000,7.800000,4.100000,8.900000C5.700000,12.100000,10,17.200000,12,19.600000C14.200000,17,18.900000,11.400000,20.200000,8.800000C20.800000,7.600000,21.200000,4.100000,17.700000,3.700000C14.900000,3.400000,13.500000,7.400000,13.500000,7.400000C13.300000,8.100000,12.700000,8.500000,12,8.400000C11.300000,8.400000,10.700000,8,10.600000,7.300000C10.600000,7.300000,9.800000,4.200000,6.900000,4.200000L6.900000,4.200000Z" transform="translate(0,0)" fill="rgb(255,255,255)" fill-opacity="0" stroke="none" stroke-width="1"/></g></g><g id="ef17df941mkg12" transform="matrix(-0.86602500000000 0.50000000000000 0.50000000000000 0.86602500000000 62.18650000000000 35.60770000000000)" opacity="0.9"><g id="ef17df941mkg13_to" transform="translate(0,0)"><path id="ef17df941mkg13" d="M16.700000,32.600000C16.100000,32.600000,15.500000,32.100000,15.100000,31.700000C14.800000,31.300000,5.200000,20.300000,1.900000,14C-0.400000,9.400000,1.300000,1.300000,9.600000,1.300000C13,1.300000,15.300000,2.900000,16.800000,4.900000C18.400000,2.600000,21.100000,0.200000,25.100000,0.700000C32.200000,1.600000,34.600000,8.600000,31.800000,13.900000C29.200000,18.900000,18.700000,31.200000,18.300000,31.700000C17.900000,32.200000,17.300000,32.600000,16.700000,32.600000L16.700000,32.600000ZM9.500000,5.500000C4.400000,5.500000,4.900000,10.500000,5.700000,12C8,16.400000,13.900000,23.500000,16.700000,26.900000C19.700000,23.300000,26.200000,15.400000,28.100000,11.900000C29,10.200000,29.400000,5.400000,24.600000,4.800000C20.700000,4.300000,18.700000,9.900000,18.700000,10C18.400000,10.900000,17.500000,11.500000,16.600000,11.500000C15.700000,11.500000,14.900000,11,14.600000,10C14.600000,9.800000,13.500000,5.500000,9.500000,5.500000L9.500000,5.500000Z" transform="translate(0,0)" fill="rgb(255,255,255)" fill-opacity="0" stroke="none" stroke-width="1"/></g></g></g></g></g></g></g></g></svg>