<svg version="1.1" id="el_9mb3w2o5Q" xmlns="http://www.w3.org/2000/svg" xmlns:xlink="http://www.w3.org/1999/xlink" x="0px" y="0px" viewBox="0 0 1200 1106" style="enable-background:new 0 0 1200 1106.4;" xml:space="preserve"><style>@-webkit-keyframes kf_el_mrqIv5V3fC_an_ISKFB8W3N{53.33%{opacity: 0;}61.67%{opacity: 1;}0%{opacity: 0;}100%{opacity: 1;}}@keyframes kf_el_mrqIv5V3fC_an_ISKFB8W3N{53.33%{opacity: 0;}61.67%{opacity: 1;}0%{opacity: 0;}100%{opacity: 1;}}@-webkit-keyframes kf_el_kzTdRiMCbX_an_i68oRvlsr{45%{opacity: 0;}53.33%{opacity: 1;}0%{opacity: 0;}100%{opacity: 1;}}@keyframes kf_el_kzTdRiMCbX_an_i68oRvlsr{45%{opacity: 0;}53.33%{opacity: 1;}0%{opacity: 0;}100%{opacity: 1;}}@-webkit-keyframes kf_el_rMbzux7IkC_an_I7pE91seA{36.67%{opacity: 0;}45%{opacity: 1;}0%{opacity: 0;}100%{opacity: 1;}}@keyframes kf_el_rMbzux7IkC_an_I7pE91seA{36.67%{opacity: 0;}45%{opacity: 1;}0%{opacity: 0;}100%{opacity: 1;}}@-webkit-keyframes kf_el_JzleMZ62FP_an_z2eXSvV8h{25%{opacity: 0;}36.67%{opacity: 1;}0%{opacity: 0;}100%{opacity: 1;}}@keyframes kf_el_JzleMZ62FP_an_z2eXSvV8h{25%{opacity: 0;}36.67%{opacity: 1;}0%{opacity: 0;}100%{opacity: 1;}}#el_9mb3w2o5Q *{-webkit-animation-duration: 2s;animation-duration: 2s;-webkit-animation-iteration-count: infinite;animation-iteration-count: infinite;-webkit-animation-timing-function: cubic-bezier(0, 0, 1, 1);animation-timing-function: cubic-bezier(0, 0, 1, 1);}#el_AVtWCPDOD8{fill: #FFFFFF;}#el_JzleMZ62FP{fill: #FFFFFF;-webkit-animation-fill-mode: backwards;animation-fill-mode: backwards;opacity: 0;-webkit-animation-name: kf_el_JzleMZ62FP_an_z2eXSvV8h;animation-name: kf_el_JzleMZ62FP_an_z2eXSvV8h;-webkit-animation-timing-function: cubic-bezier(0, 0, 1, 1);animation-timing-function: cubic-bezier(0, 0, 1, 1);}#el_rMbzux7IkC{fill: #FFFFFF;-webkit-animation-fill-mode: backwards;animation-fill-mode: backwards;opacity: 0;-webkit-animation-name: kf_el_rMbzux7IkC_an_I7pE91seA;animation-name: kf_el_rMbzux7IkC_an_I7pE91seA;-webkit-animation-timing-function: cubic-bezier(0, 0, 1, 1);animation-timing-function: cubic-bezier(0, 0, 1, 1);}#el_kzTdRiMCbX{fill: #FFFFFF;-webkit-animation-fill-mode: backwards;animation-fill-mode: backwards;opacity: 0;-webkit-animation-name: kf_el_kzTdRiMCbX_an_i68oRvlsr;animation-name: kf_el_kzTdRiMCbX_an_i68oRvlsr;-webkit-animation-timing-function: cubic-bezier(0, 0, 1, 1);animation-timing-function: cubic-bezier(0, 0, 1, 1);}#el_mrqIv5V3fC{fill: #FFFFFF;-webkit-animation-fill-mode: backwards;animation-fill-mode: backwards;opacity: 0;-webkit-animation-name: kf_el_mrqIv5V3fC_an_ISKFB8W3N;animation-name: kf_el_mrqIv5V3fC_an_ISKFB8W3N;-webkit-animation-timing-function: cubic-bezier(0, 0, 1, 1);animation-timing-function: cubic-bezier(0, 0, 1, 1);}#el_AVtWCPDOD8_an_1jDTb0dkE{-webkit-transform: translate(-0.001519918441772461px, 126.19999694824219px) translate(0.001519918441772461px, -126.19999694824219px) translate(0px, 1000px);transform: translate(-0.001519918441772461px, 126.19999694824219px) translate(0.001519918441772461px, -126.19999694824219px) translate(0px, 1000px);}</style>

<path d="M765.9,1106.4L765.9,1106.4c-6.4,0-13.2-0.5-20-1.5c-194.4-28.9-350.9-108.4-492.5-250&#10;&#9;c-0.1-0.1-0.7-0.7-0.8-0.8l-0.9-0.9C110,711.5,30.5,555,1.6,360.6c-13.2-88.6,55.9-130.7,181.3-207.3l28.3-17.3&#10;&#9;c10.4-6.4,22.4-9.8,34.5-9.8c25.9,0,49.4,15.2,59.9,38.8l75.5,169.3c16.3,36.7,0.8,79-35.4,96.4l-56.2,27c-3.8,1.9-7,6.1-5.6,10.1&#10;&#9;c13.1,36,49.3,110.9,145.6,207.4l1,0.9c97.2,97,172.1,133.3,208.1,146.3c3.7,1.3,8-1.3,10-5.6l27-56.1&#10;&#9;c12.2-25.4,38.3-41.7,66.4-41.7c10.4,0,20.5,2.2,30,6.4l169.3,75.5c17.2,7.7,30.3,22.4,35.8,40.4c5.6,18.1,3.1,37.8-6.8,54.1&#10;&#9;l-17.3,28.3C881.2,1041.5,841.5,1106.4,765.9,1106.4z M245.7,167.4c-4.5,0-9,1.3-13,3.7l-28.4,17.4C77.2,266.1,33.7,296,42.4,354.5&#10;&#9;C70,539.8,145.7,688.9,280.8,824l1,1c135.8,135.8,285,211.6,470.2,239.1c4.8,0.7,9.5,1.1,13.9,1.1c50.5,0,81.3-47.1,152.1-163.1&#10;&#9;l17.4-28.4c3.8-6.2,4.7-13.4,2.6-20.3c-2.1-6.8-6.8-12.1-13.2-14.9L755.4,763c-15.7-7-35.1,0.3-42.4,15.6l-27,56.1&#10;&#9;c-8.6,17.8-26.3,29.3-45.2,29.3c-5.5,0-10.9-1-16-2.8c-39.2-14.2-120.3-53.3-222.5-155.2c-0.1-0.1-0.8-0.8-0.8-0.8&#10;&#9;c-0.1-0.1-0.7-0.7-0.9-0.9C298.6,602.1,259.6,521,245.3,481.7c-8.5-23.6,2.8-49.9,26.5-61.3l56.1-27c15.9-7.7,22.8-26.3,15.6-42.4&#10;&#9;L268,181.8C264.1,173.1,255.4,167.4,245.7,167.4z" id="el_AVtWCPDOD8"/>
<path d="M691.6,588.7c-10.3,0-20.1-3.9-27.6-10.9c-8.2-7.6-12.7-18-12.7-29.4v-89.3c0-2.8-2.3-5.2-5.2-5.2h-20.9&#10;&#9;c-39.8,0-72.2-32.4-72.2-72.2V72.2C553,32.4,585.4,0,625.2,0h502.6c39.8,0,72.2,32.4,72.2,72.2V382c0,39.8-32.4,72.2-72.2,72.2&#10;&#9;H845.2c-10.5,0-20.5,4.5-27.4,12.3l-96.3,108.7C713.7,583.9,703.1,588.7,691.6,588.7z M625.2,41.2c-17.1,0-30.9,13.9-30.9,30.9V382&#10;&#9;c0,17.1,13.9,30.9,30.9,30.9h20.9c25.6,0,46.4,20.8,46.4,46.4v86.5l94.5-106.6c14.8-16.7,36-26.2,58.3-26.2h282.6&#10;&#9;c17.1,0,30.9-13.9,30.9-30.9V72.2c0-17.1-13.9-30.9-30.9-30.9H625.2z" id="el_JzleMZ62FP"/>
<circle cx="757.1" cy="223.6" r="35.7" id="el_rMbzux7IkC"/>
<circle cx="876.3" cy="223.6" r="35.7" id="el_kzTdRiMCbX"/>
<circle cx="995.5" cy="223.6" r="35.7" id="el_mrqIv5V3fC"/>
</svg>